<svg version="1.1" id="Layer_1" xmlns="http://www.w3.org/2000/svg" xmlns:xlink="http://www.w3.org/1999/xlink" x="0px" y="0px"
	 width="100%" viewBox="0 0 1080 1080" enable-background="new 0 0 1080 1080" xml:space="preserve">
<path fill="#EBD9DB" opacity="1.000000" stroke="none" 
	d="
M627.000000,1081.000000 
	C418.024048,1081.000000 209.548126,1081.000000 1.036090,1081.000000 
	C1.036090,721.065613 1.036090,361.131195 1.036090,1.098403 
	C360.892853,1.098403 720.785706,1.098403 1080.839355,1.098403 
	C1080.839355,360.999939 1080.839355,720.999939 1080.839355,1081.000000 
	C929.797424,1081.000000 778.648743,1081.000000 627.000000,1081.000000 
M170.041641,602.403259 
	C174.174362,619.511047 177.432617,636.888733 182.613785,653.672852 
	C195.104721,694.136597 215.018677,730.860046 240.681610,764.551880 
	C257.497314,786.628540 276.512543,806.555176 297.896667,824.160645 
	C328.424103,849.293640 362.013977,869.202026 398.963928,883.621887 
	C441.126892,900.076050 484.776276,908.141602 529.881897,908.852661 
	C538.510986,908.988708 547.174072,908.545593 555.784607,907.887268 
	C566.694763,907.053223 577.647827,906.231384 588.439880,904.510620 
	C614.124084,900.415344 639.099548,893.519043 663.443359,884.310730 
	C689.569885,874.428101 714.212097,861.634277 737.269409,845.960327 
	C765.467590,826.791626 790.496094,804.037659 812.610229,778.004211 
	C832.887573,754.133423 849.910767,728.107544 863.137451,699.870178 
	C871.432922,682.160461 877.863098,663.486511 883.975647,644.866150 
	C893.087036,617.110718 897.366760,588.300476 898.784180,559.204956 
	C899.941467,535.448364 898.605408,511.720612 895.162659,488.093689 
	C890.013550,452.756165 879.744751,418.997070 864.741455,386.700836 
	C850.512878,356.072083 832.252136,328.051147 810.169922,302.357208 
	C792.496216,281.792816 772.946838,263.403320 751.266479,247.308762 
	C730.798889,232.114532 709.015808,219.059189 685.803894,208.287888 
	C644.107056,188.938782 600.308228,177.920593 554.582886,175.288300 
	C529.700378,173.855865 504.683960,174.425842 479.893311,178.118912 
	C441.781189,183.796478 405.262451,194.700546 370.671936,211.763596 
	C338.555359,227.606293 309.290222,247.737793 282.880798,271.866333 
	C262.675171,290.326843 245.080093,311.159576 229.591583,333.742493 
	C206.710785,367.103760 189.413803,403.123901 178.574951,442.127045 
	C170.179321,472.338409 165.572464,503.170990 165.098251,534.539978 
	C164.940125,544.999817 165.304657,555.501465 166.100479,565.932861 
	C167.008057,577.829041 168.664093,589.668091 170.041641,602.403259 
z"/>
<path fill="#FFACAC" opacity="1.000000" stroke="none" 
	d="
M170.018250,601.967651 
	C168.664093,589.668091 167.008057,577.829041 166.100479,565.932861 
	C165.304657,555.501465 164.940125,544.999817 165.098251,534.539978 
	C165.572464,503.170990 170.179321,472.338409 178.574951,442.127045 
	C189.413803,403.123901 206.710785,367.103760 229.591583,333.742493 
	C245.080093,311.159576 262.675171,290.326843 282.880798,271.866333 
	C309.290222,247.737793 338.555359,227.606293 370.671936,211.763596 
	C405.262451,194.700546 441.781189,183.796478 479.893311,178.118912 
	C504.683960,174.425842 529.700378,173.855865 554.582886,175.288300 
	C600.308228,177.920593 644.107056,188.938782 685.803894,208.287888 
	C709.015808,219.059189 730.798889,232.114532 751.266479,247.308762 
	C772.946838,263.403320 792.496216,281.792816 810.169922,302.357208 
	C832.252136,328.051147 850.512878,356.072083 864.741455,386.700836 
	C879.744751,418.997070 890.013550,452.756165 895.162659,488.093689 
	C898.605408,511.720612 899.941467,535.448364 898.784180,559.204956 
	C897.366760,588.300476 893.087036,617.110718 883.975647,644.866150 
	C877.863098,663.486511 871.432922,682.160461 863.137451,699.870178 
	C849.910767,728.107544 832.887573,754.133423 812.610229,778.004211 
	C790.496094,804.037659 765.467590,826.791626 737.269409,845.960327 
	C714.212097,861.634277 689.569885,874.428101 663.443359,884.310730 
	C639.099548,893.519043 614.124084,900.415344 588.439880,904.510620 
	C577.647827,906.231384 566.694763,907.053223 555.784607,907.887268 
	C547.174072,908.545593 538.510986,908.988708 529.881897,908.852661 
	C484.776276,908.141602 441.126892,900.076050 398.963928,883.621887 
	C362.013977,869.202026 328.424103,849.293640 297.896667,824.160645 
	C276.512543,806.555176 257.497314,786.628540 240.681610,764.551880 
	C215.018677,730.860046 195.104721,694.136597 182.613785,653.672852 
	C177.432617,636.888733 174.174362,619.511047 170.018250,601.967651 
M305.722443,801.796265 
	C332.091034,823.369263 360.093628,842.254395 391.345398,856.277954 
	C429.558685,873.425354 469.515839,883.371033 511.177216,885.749023 
	C541.103638,887.457214 571.015686,885.830200 600.490173,879.608093 
	C636.228699,872.063721 670.175781,859.710510 701.920593,841.505737 
	C723.339355,829.222656 743.559509,815.195129 761.766663,798.527710 
	C786.550598,775.839600 808.630554,750.695618 825.655151,721.616089 
	C834.803711,705.989502 843.445862,689.896912 850.483887,673.240295 
	C864.144043,640.911072 872.263000,607.075989 875.228088,571.953003 
	C877.123413,549.502502 877.561340,527.054993 874.620178,504.842529 
	C871.947815,484.660126 868.006775,464.497498 862.705322,444.843964 
	C853.318481,410.044922 837.840881,377.816254 817.359375,348.083923 
	C800.213013,323.193176 780.334656,300.757965 757.478943,280.912537 
	C737.659241,263.703217 716.056030,249.143555 693.067871,236.629486 
	C671.633972,224.961563 648.896179,216.455917 625.472839,209.667145 
	C601.591736,202.745697 577.217102,198.198502 552.456909,197.332718 
	C532.900085,196.648911 513.171692,197.393402 493.685455,199.247589 
	C477.399292,200.797302 461.157013,204.078064 445.244751,208.007309 
	C417.344666,214.896744 390.807526,225.601807 365.689453,239.680740 
	C341.957947,252.982513 319.748779,268.452850 299.736908,286.901611 
	C273.882477,310.736542 251.893784,337.721985 234.192520,368.195068 
	C219.729980,393.092560 208.526840,419.314789 200.500748,446.956512 
	C194.225525,468.568207 189.994293,490.593536 188.318832,512.967651 
	C187.218307,527.664246 187.403091,542.528137 188.086441,557.267212 
	C188.761459,571.827271 189.887070,586.481384 192.384552,600.820923 
	C200.774933,648.995178 218.852921,693.415649 246.078384,734.073364 
	C262.828766,759.087952 283.141083,780.981689 305.722443,801.796265 
z"/>
<path fill="#EDD5D6" opacity="1.000000" stroke="none" 
	d="
M305.429352,801.596802 
	C283.141083,780.981689 262.828766,759.087952 246.078384,734.073364 
	C218.852921,693.415649 200.774933,648.995178 192.384552,600.820923 
	C189.887070,586.481384 188.761459,571.827271 188.086441,557.267212 
	C187.403091,542.528137 187.218307,527.664246 188.318832,512.967651 
	C189.994293,490.593536 194.225525,468.568207 200.500748,446.956512 
	C208.526840,419.314789 219.729980,393.092560 234.192520,368.195068 
	C251.893784,337.721985 273.882477,310.736542 299.736908,286.901611 
	C319.748779,268.452850 341.957947,252.982513 365.689453,239.680740 
	C390.807526,225.601807 417.344666,214.896744 445.244751,208.007309 
	C461.157013,204.078064 477.399292,200.797302 493.685455,199.247589 
	C513.171692,197.393402 532.900085,196.648911 552.456909,197.332718 
	C577.217102,198.198502 601.591736,202.745697 625.472839,209.667145 
	C648.896179,216.455917 671.633972,224.961563 693.067871,236.629486 
	C716.056030,249.143555 737.659241,263.703217 757.478943,280.912537 
	C780.334656,300.757965 800.213013,323.193176 817.359375,348.083923 
	C837.840881,377.816254 853.318481,410.044922 862.705322,444.843964 
	C868.006775,464.497498 871.947815,484.660126 874.620178,504.842529 
	C877.561340,527.054993 877.123413,549.502502 875.228088,571.953003 
	C872.263000,607.075989 864.144043,640.911072 850.483887,673.240295 
	C843.445862,689.896912 834.803711,705.989502 825.655151,721.616089 
	C808.630554,750.695618 786.550598,775.839600 761.766663,798.527710 
	C743.559509,815.195129 723.339355,829.222656 701.920593,841.505737 
	C670.175781,859.710510 636.228699,872.063721 600.490173,879.608093 
	C571.015686,885.830200 541.103638,887.457214 511.177216,885.749023 
	C469.515839,883.371033 429.558685,873.425354 391.345398,856.277954 
	C360.093628,842.254395 332.091034,823.369263 305.429352,801.596802 
M799.825317,331.698883 
	C784.027344,312.091125 766.941772,293.686371 747.244751,277.952759 
	C719.272461,255.609055 688.839539,237.525665 655.335083,224.424911 
	C615.473572,208.838409 574.151978,201.704407 531.619690,201.200043 
	C518.229065,201.041245 504.793701,202.749832 491.414459,203.988632 
	C470.828583,205.894699 450.709625,210.382507 431.023956,216.547318 
	C396.958588,227.215286 365.300568,242.786499 336.086975,263.455292 
	C310.787781,281.354645 288.230621,302.143677 268.689148,326.090607 
	C246.039276,353.846741 228.101349,384.422913 214.953140,417.863525 
	C201.687805,451.602112 194.174301,486.585541 192.215897,522.618408 
	C190.689270,550.706726 192.436539,578.725769 197.913742,606.486816 
	C205.994797,647.445557 221.033859,685.575623 243.010498,720.992737 
	C262.825348,752.926025 287.284332,780.883484 316.335480,804.693909 
	C339.329041,823.539551 364.411194,839.033936 391.540253,851.436523 
	C431.712952,869.802185 473.883484,879.425781 517.769104,881.853882 
	C539.557922,883.059448 561.287476,881.307373 582.875549,878.082825 
	C623.806458,871.969238 662.179443,858.451721 698.319275,838.370178 
	C720.960449,825.789246 741.977722,810.827576 760.850220,793.225281 
	C773.824158,781.124512 785.731934,767.759216 797.185181,754.174194 
	C822.240784,724.454956 839.943298,690.476135 853.160645,654.048828 
	C863.896057,624.461914 869.899109,593.846375 871.770935,562.547485 
	C873.201416,538.629517 872.340210,514.626160 868.687378,490.885193 
	C864.706299,465.010712 857.984497,439.839447 848.072754,415.531799 
	C835.870117,385.605713 820.322937,357.649811 799.825317,331.698883 
z"/>
<path fill="#FEAEAE" opacity="1.000000" stroke="none" 
	d="
M800.004150,332.006348 
	C820.322937,357.649811 835.870117,385.605713 848.072754,415.531799 
	C857.984497,439.839447 864.706299,465.010712 868.687378,490.885193 
	C872.340210,514.626160 873.201416,538.629517 871.770935,562.547485 
	C869.899109,593.846375 863.896057,624.461914 853.160645,654.048828 
	C839.943298,690.476135 822.240784,724.454956 797.185181,754.174194 
	C785.731934,767.759216 773.824158,781.124512 760.850220,793.225281 
	C741.977722,810.827576 720.960449,825.789246 698.319275,838.370178 
	C662.179443,858.451721 623.806458,871.969238 582.875549,878.082825 
	C561.287476,881.307373 539.557922,883.059448 517.769104,881.853882 
	C473.883484,879.425781 431.712952,869.802185 391.540253,851.436523 
	C364.411194,839.033936 339.329041,823.539551 316.335480,804.693909 
	C287.284332,780.883484 262.825348,752.926025 243.010498,720.992737 
	C221.033859,685.575623 205.994797,647.445557 197.913742,606.486816 
	C192.436539,578.725769 190.689270,550.706726 192.215897,522.618408 
	C194.174301,486.585541 201.687805,451.602112 214.953140,417.863525 
	C228.101349,384.422913 246.039276,353.846741 268.689148,326.090607 
	C288.230621,302.143677 310.787781,281.354645 336.086975,263.455292 
	C365.300568,242.786499 396.958588,227.215286 431.023956,216.547318 
	C450.709625,210.382507 470.828583,205.894699 491.414459,203.988632 
	C504.793701,202.749832 518.229065,201.041245 531.619690,201.200043 
	C574.151978,201.704407 615.473572,208.838409 655.335083,224.424911 
	C688.839539,237.525665 719.272461,255.609055 747.244751,277.952759 
	C766.941772,293.686371 784.027344,312.091125 800.004150,332.006348 
M638.234131,224.235016 
	C607.444092,213.986771 575.764465,207.898773 543.401306,207.358826 
	C523.054749,207.019363 502.550995,208.695862 482.310150,211.092575 
	C448.163269,215.135895 415.756714,225.747543 385.040558,241.117691 
	C365.242493,251.024475 346.331512,262.485382 328.745483,276.079163 
	C308.527924,291.707062 290.084869,309.204254 273.906219,328.906281 
	C252.241547,355.289062 234.947983,384.397430 221.953476,416.038971 
	C208.186844,449.560669 200.059967,484.446991 198.249023,520.538574 
	C196.908112,547.262573 197.933701,573.976746 202.731857,600.537109 
	C209.890244,640.162659 223.752609,677.153809 244.227005,711.673157 
	C263.119873,743.526001 286.578491,771.568115 314.900940,795.616394 
	C334.406738,812.178528 355.074615,827.096191 378.029968,838.147095 
	C397.451294,847.496704 417.752686,855.223511 438.133087,862.323608 
	C463.215210,871.061707 489.562500,874.235413 515.945496,875.794128 
	C538.375061,877.119202 560.786621,875.505493 583.044678,872.085632 
	C622.770020,865.982056 660.130249,853.105225 695.163269,833.424194 
	C720.825806,819.007141 744.286377,801.586975 765.304688,781.022400 
	C784.260620,762.475525 800.908264,741.983887 815.045227,719.477173 
	C830.451538,694.949463 842.529358,668.879639 851.287170,641.311707 
	C859.365601,615.882385 864.314331,589.727173 865.760742,563.137817 
	C867.070496,539.060486 866.613098,514.876831 862.711670,490.972839 
	C859.199768,469.455170 853.935608,448.363220 846.505066,427.800842 
	C836.998596,401.493713 824.370544,376.764435 808.682312,353.716705 
	C790.159790,326.505280 768.032043,302.476379 742.345276,281.738647 
	C711.210632,256.602539 676.761841,237.572159 638.234131,224.235016 
z"/>
<path fill="#EDD4D6" opacity="1.000000" stroke="none" 
	d="
M638.603760,224.375107 
	C676.761841,237.572159 711.210632,256.602539 742.345276,281.738647 
	C768.032043,302.476379 790.159790,326.505280 808.682312,353.716705 
	C824.370544,376.764435 836.998596,401.493713 846.505066,427.800842 
	C853.935608,448.363220 859.199768,469.455170 862.711670,490.972839 
	C866.613098,514.876831 867.070496,539.060486 865.760742,563.137817 
	C864.314331,589.727173 859.365601,615.882385 851.287170,641.311707 
	C842.529358,668.879639 830.451538,694.949463 815.045227,719.477173 
	C800.908264,741.983887 784.260620,762.475525 765.304688,781.022400 
	C744.286377,801.586975 720.825806,819.007141 695.163269,833.424194 
	C660.130249,853.105225 622.770020,865.982056 583.044678,872.085632 
	C560.786621,875.505493 538.375061,877.119202 515.945496,875.794128 
	C489.562500,874.235413 463.215210,871.061707 438.133087,862.323608 
	C417.752686,855.223511 397.451294,847.496704 378.029968,838.147095 
	C355.074615,827.096191 334.406738,812.178528 314.900940,795.616394 
	C286.578491,771.568115 263.119873,743.526001 244.227005,711.673157 
	C223.752609,677.153809 209.890244,640.162659 202.731857,600.537109 
	C197.933701,573.976746 196.908112,547.262573 198.249023,520.538574 
	C200.059967,484.446991 208.186844,449.560669 221.953476,416.038971 
	C234.947983,384.397430 252.241547,355.289062 273.906219,328.906281 
	C290.084869,309.204254 308.527924,291.707062 328.745483,276.079163 
	C346.331512,262.485382 365.242493,251.024475 385.040558,241.117691 
	C415.756714,225.747543 448.163269,215.135895 482.310150,211.092575 
	C502.550995,208.695862 523.054749,207.019363 543.401306,207.358826 
	C575.764465,207.898773 607.444092,213.986771 638.603760,224.375107 
M466.344604,865.140442 
	C485.933319,867.429199 505.469696,870.611511 525.125061,871.762085 
	C545.863892,872.976074 566.570190,870.547119 587.108215,867.140625 
	C628.644287,860.251526 667.401306,845.880127 703.383606,824.089905 
	C732.193420,806.643372 757.502319,785.034485 779.890564,759.841675 
	C795.891846,741.835938 809.627991,722.296509 821.289734,701.317505 
	C845.176025,658.346680 858.716370,612.144958 861.771301,563.160522 
	C863.239685,539.615295 862.559204,515.941895 858.924866,492.478699 
	C852.590515,451.584015 839.306580,413.144257 818.692810,377.241821 
	C798.507935,342.086212 772.690552,311.665680 741.380249,285.991302 
	C717.324341,266.265503 690.887207,250.387741 662.294678,237.996613 
	C622.246277,220.640854 580.308960,211.928787 536.865295,211.251816 
	C519.356689,210.978973 501.740814,213.016739 484.284363,214.984055 
	C453.798492,218.419754 424.746307,227.502426 396.895996,240.108749 
	C354.377899,259.354401 317.289093,286.138733 286.147217,321.122345 
	C269.030365,340.350800 254.053650,361.018280 241.733688,383.576111 
	C218.505188,426.107330 205.052719,471.653656 202.231293,519.979553 
	C200.641983,547.201233 201.811066,574.460388 206.895294,601.463928 
	C214.149384,639.992065 227.598892,676.170837 247.585281,709.796875 
	C266.770172,742.074463 290.816589,770.322876 319.718933,794.476868 
	C340.007019,811.431885 361.853943,825.942078 385.470245,837.642944 
	C410.901855,850.243164 437.538483,859.662598 466.344604,865.140442 
z"/>
<path fill="#FFABAB" opacity="1.000000" stroke="none" 
	d="
M465.920197,865.098694 
	C437.538483,859.662598 410.901855,850.243164 385.470245,837.642944 
	C361.853943,825.942078 340.007019,811.431885 319.718933,794.476868 
	C290.816589,770.322876 266.770172,742.074463 247.585281,709.796875 
	C227.598892,676.170837 214.149384,639.992065 206.895294,601.463928 
	C201.811066,574.460388 200.641983,547.201233 202.231293,519.979553 
	C205.052719,471.653656 218.505188,426.107330 241.733688,383.576111 
	C254.053650,361.018280 269.030365,340.350800 286.147217,321.122345 
	C317.289093,286.138733 354.377899,259.354401 396.895996,240.108749 
	C424.746307,227.502426 453.798492,218.419754 484.284363,214.984055 
	C501.740814,213.016739 519.356689,210.978973 536.865295,211.251816 
	C580.308960,211.928787 622.246277,220.640854 662.294678,237.996613 
	C690.887207,250.387741 717.324341,266.265503 741.380249,285.991302 
	C772.690552,311.665680 798.507935,342.086212 818.692810,377.241821 
	C839.306580,413.144257 852.590515,451.584015 858.924866,492.478699 
	C862.559204,515.941895 863.239685,539.615295 861.771301,563.160522 
	C858.716370,612.144958 845.176025,658.346680 821.289734,701.317505 
	C809.627991,722.296509 795.891846,741.835938 779.890564,759.841675 
	C757.502319,785.034485 732.193420,806.643372 703.383606,824.089905 
	C667.401306,845.880127 628.644287,860.251526 587.108215,867.140625 
	C566.570190,870.547119 545.863892,872.976074 525.125061,871.762085 
	C505.469696,870.611511 485.933319,867.429199 465.920197,865.098694 
M522.705811,537.955750 
	C527.441711,537.232056 529.675415,540.356995 531.488220,543.865295 
	C533.898438,548.529724 532.997009,552.945435 529.789612,556.875671 
	C523.873413,564.125183 510.757568,566.674500 500.344208,562.722473 
	C491.378448,559.319824 487.203705,551.892456 488.986053,542.515076 
	C490.199463,536.131104 495.160400,532.788635 501.647614,533.771912 
	C503.594910,534.067078 505.624847,533.817505 507.616913,533.817505 
	C507.742249,533.057190 507.867584,532.296936 507.992920,531.536621 
	C506.075775,531.063477 504.120880,530.084229 502.249451,530.223816 
	C498.486511,530.504517 496.692871,528.604248 495.661285,525.472473 
	C494.382965,521.591370 494.467163,517.844604 497.647369,514.849670 
	C501.183075,511.519897 505.207001,512.743103 507.933563,513.288147 
	C507.736084,516.577576 506.601654,519.737915 507.658997,521.741638 
	C509.061829,524.399902 512.223328,523.999146 514.522095,521.833130 
	C516.830994,519.657715 516.212524,515.666443 513.269958,513.029907 
	C507.996918,508.305084 495.748962,509.007904 491.309662,514.547424 
	C490.055328,516.112671 488.736298,518.716370 489.197021,520.350159 
	C490.333954,524.381714 492.485443,528.127136 494.358765,532.274719 
	C494.321869,532.294556 493.174500,532.935486 492.006256,533.535828 
	C480.167480,539.619812 477.930145,553.175781 487.119781,562.659424 
	C495.291382,571.092468 505.658813,572.380310 516.206726,570.342285 
	C521.575073,569.305054 527.213196,566.192993 531.154419,562.387695 
	C534.076477,559.566528 535.890198,554.014893 535.597778,549.862732 
	C535.261108,545.081726 532.063538,540.502258 530.057251,535.712952 
	C532.597595,534.736206 536.434387,533.569702 539.990417,531.829407 
	C547.411072,528.197937 549.722107,521.243713 545.898438,514.948364 
	C542.353027,509.111237 532.997070,506.997101 527.370178,511.044434 
	C526.163208,511.912598 524.925903,514.321716 525.324463,515.445984 
	C525.845520,516.915649 527.859131,518.561462 529.442810,518.817139 
	C534.222717,519.588745 534.914856,515.733643 535.467712,512.294617 
	C540.317017,512.480469 543.143982,514.393738 543.890198,517.992554 
	C544.696777,521.882080 542.786438,524.707825 539.452332,526.014526 
	C532.816101,528.615356 525.894775,530.492432 519.273499,533.126587 
	C515.037659,534.811646 510.828094,536.904785 507.160126,539.575134 
	C503.769562,542.043579 503.260284,546.064819 504.752808,550.011780 
	C506.352905,554.243042 510.123047,556.616089 514.080200,556.369751 
	C517.704529,556.144226 521.661377,554.290039 524.584045,552.013794 
	C526.841553,550.255554 526.858154,546.390625 523.798462,544.765198 
	C522.063354,543.843384 519.358154,544.747559 517.089905,544.829346 
	C517.337280,547.191895 517.571045,549.555969 517.844482,551.915466 
	C517.893616,552.339294 518.106567,552.744080 518.327393,553.409302 
	C514.025269,554.579529 510.340332,554.077637 508.463013,549.935852 
	C506.466766,545.531616 509.451630,543.043701 513.028809,541.409912 
	C515.892212,540.102112 518.939758,539.197327 522.705811,537.955750 
M367.049927,539.500000 
	C367.049927,527.479919 367.049927,515.459900 367.049927,503.264893 
	C361.486206,503.730011 357.025024,504.102966 352.563812,504.475952 
	C363.860718,510.228180 357.135651,519.788330 359.264893,527.834412 
	C346.603546,523.200073 339.363647,524.940063 333.213776,533.425537 
	C327.516602,541.286438 327.714966,557.463928 333.941681,565.035950 
	C335.648560,567.111633 338.167511,568.875122 340.675629,569.866699 
	C347.016602,572.373413 353.028595,571.305298 357.915314,566.812012 
	C359.070068,568.321594 360.040588,570.669067 361.008301,570.667908 
	C365.118805,570.663025 369.228485,569.961731 373.338470,569.514771 
	C368.121124,567.733887 367.047028,563.957581 367.051910,559.461304 
	C367.058777,553.140869 367.051361,546.820435 367.049927,539.500000 
M239.294907,510.036987 
	C239.034714,510.834045 238.774506,511.631104 238.514313,512.428162 
	C245.101013,512.998291 243.833298,518.123169 243.898560,522.152405 
	C244.068390,532.637268 244.180145,543.133423 243.869125,553.611816 
	C243.691086,559.610168 246.838989,567.281189 237.451965,569.587219 
	C245.063599,569.587219 252.675232,569.587219 260.286865,569.587219 
	C252.814911,566.826355 252.814758,566.826355 252.807831,558.734863 
	C252.806686,557.403076 252.797180,556.071228 252.809341,554.739563 
	C252.902115,544.584778 251.790131,546.143188 261.619965,546.020386 
	C273.160706,545.876038 281.805481,537.764648 281.800507,527.001404 
	C281.795959,517.160095 273.427307,510.121613 261.610413,510.060272 
	C254.452362,510.023132 247.294052,510.038330 239.294907,510.036987 
M576.530823,554.851257 
	C578.648376,561.004150 582.782166,565.689880 588.489868,568.332458 
	C598.892578,573.148682 609.183960,571.766235 618.539246,565.518494 
	C620.017395,567.468750 621.030151,568.804932 622.889465,571.257996 
	C622.889465,563.096985 622.889465,556.432007 622.889465,549.767090 
	C622.266785,549.671631 621.644104,549.576172 621.021423,549.480652 
	C620.360474,551.797485 619.633606,554.097778 619.049561,556.433838 
	C615.980652,568.708252 600.869507,573.152710 591.718018,564.454346 
	C582.659180,555.844116 580.760803,532.100952 587.868347,520.358337 
	C592.020874,513.497681 597.774353,510.663635 605.500183,512.095398 
	C612.869812,513.461121 617.811401,517.559448 619.229187,525.331055 
	C619.562073,527.155640 620.636902,528.844971 621.370422,530.596497 
	C621.915833,530.447876 622.461304,530.299255 623.006714,530.150635 
	C623.006714,523.566895 623.006714,516.983093 623.006714,510.399384 
	C622.675476,510.244019 622.344299,510.088623 622.013062,509.933258 
	C620.994385,511.550201 619.975708,513.167175 618.734863,515.136841 
	C616.772644,514.084290 614.792969,512.973938 612.771423,511.945953 
	C601.119934,506.021515 586.976685,509.654419 579.742920,520.632324 
	C572.821533,531.136108 572.411072,542.435486 576.530823,554.851257 
M312.956329,526.197205 
	C306.561707,523.910156 300.108307,524.270142 294.877075,528.376099 
	C286.006866,535.338440 285.021545,545.166321 286.983276,555.535217 
	C289.390808,568.261047 302.640076,574.903687 314.210327,569.259155 
	C318.824249,567.008179 321.547516,563.047607 320.934875,558.528137 
	C319.547882,560.023865 318.494354,561.168823 317.431427,562.304871 
	C311.674652,568.457703 303.648499,568.541809 299.255096,561.499939 
	C296.779907,557.532593 296.279907,552.207458 295.533600,547.394165 
	C295.386871,546.447815 298.130157,544.112305 299.643585,544.014587 
	C305.778687,543.618896 311.956818,543.734558 318.113312,543.890015 
	C321.235474,543.968872 322.264984,542.712830 321.987701,539.730225 
	C321.444336,533.885254 319.278503,529.137024 312.956329,526.197205 
M661.488281,564.162231 
	C653.769165,568.484009 647.076904,567.019531 643.522705,559.560852 
	C641.931396,556.221252 641.669312,552.213501 641.016846,548.471863 
	C640.435974,545.141174 641.812622,543.645447 645.420593,543.785461 
	C651.402039,544.017517 657.412903,543.597290 663.385071,543.927307 
	C667.915527,544.177551 668.385071,541.938110 667.773010,538.431091 
	C665.881042,527.589600 655.369507,521.842102 645.100281,526.048645 
	C634.616882,530.342896 629.650146,542.528381 632.880127,556.029541 
	C635.819824,568.317688 648.236267,574.656250 659.610291,569.427185 
	C663.752502,567.522888 666.977783,564.467590 667.927185,559.968201 
	C667.382324,559.490417 666.837463,559.012695 666.292664,558.534912 
	C664.873474,560.241882 663.454285,561.948853 661.488281,564.162231 
M791.007690,545.742249 
	C791.016113,548.074463 790.896545,550.415466 791.055481,552.737427 
	C791.665161,561.643250 797.057068,568.281006 805.366821,570.500916 
	C815.269592,573.146362 824.894714,568.033875 826.372620,558.021057 
	C824.454529,560.027954 823.287109,561.142212 822.241638,562.361084 
	C816.778931,568.729919 807.335632,568.306396 803.378540,560.915894 
	C801.351440,557.130005 800.865967,552.467346 799.976746,548.140686 
	C799.325378,544.971191 800.904663,543.697632 804.187256,543.795776 
	C810.346741,543.980103 816.525452,544.029114 822.673401,543.703064 
	C824.089722,543.628052 826.523804,541.890564 826.603271,540.782776 
	C827.205322,532.387085 820.499634,525.339355 812.090759,525.035889 
	C800.104675,524.603210 792.687683,531.577698 791.007690,545.742249 
M394.150269,564.540833 
	C389.034698,560.131287 387.773376,554.329773 387.850983,547.897217 
	C387.887085,544.902771 388.899628,543.733704 391.936523,543.806519 
	C398.091797,543.954163 404.255951,543.733337 410.411072,543.884033 
	C414.430115,543.982544 415.240356,542.103699 414.593658,538.564270 
	C413.421173,532.146973 410.366272,527.253418 403.762360,525.648499 
	C397.359985,524.092590 391.261292,524.737915 386.050415,529.482178 
	C379.459991,535.482544 378.731964,543.210571 378.961761,551.424866 
	C379.318909,564.191528 389.267761,572.761353 401.898102,570.925049 
	C408.244537,570.002258 413.605286,564.895813 414.155548,557.982117 
	C408.592133,564.547180 403.115051,569.663330 394.150269,564.540833 
M675.790649,555.448730 
	C678.522888,567.162842 687.394348,571.938904 696.878601,570.995483 
	C703.342957,570.352417 709.369934,564.735352 709.194763,559.314453 
	C708.874146,559.294617 708.410034,559.127991 708.255859,559.278564 
	C707.201355,560.308960 706.221008,561.414673 705.199951,562.480042 
	C698.531555,569.437744 689.387146,568.012756 686.037415,559.049622 
	C682.642151,549.964539 682.914490,540.749451 687.849426,532.109497 
	C690.759338,527.014954 697.057434,526.105774 701.944946,530.018921 
	C701.458313,530.805664 700.940857,531.618835 700.446289,532.445740 
	C698.705566,535.356689 699.484741,538.152283 702.455383,538.833801 
	C704.400085,539.279907 707.667053,538.086731 708.923462,536.502747 
	C711.155273,533.689026 709.284851,530.775879 706.845581,528.714111 
	C700.575195,523.414062 689.475464,523.804443 683.285828,529.196106 
	C675.351562,536.107422 674.154968,544.956726 675.790649,555.448730 
M754.090210,508.746826 
	C753.996338,507.022980 753.902466,505.299133 753.807373,503.553223 
	C748.846802,503.891785 744.590210,504.182281 740.333618,504.472809 
	C740.036621,504.928436 739.739624,505.384094 739.442627,505.839722 
	C746.728394,506.965149 746.010254,511.982544 746.003784,516.691345 
	C745.984680,530.685181 745.967957,544.679199 746.013733,558.672852 
	C746.028381,563.154358 746.516846,567.771179 740.753235,569.415161 
	C747.254639,569.415161 753.755981,569.415161 760.257385,569.415161 
	C754.649963,568.136230 754.064026,564.165710 754.074890,559.664062 
	C754.114929,543.004822 754.090698,526.345459 754.090210,508.746826 
M453.260406,536.044128 
	C453.849670,533.831604 455.579987,530.937805 454.761047,529.565918 
	C453.528687,527.501526 450.469086,525.266357 448.265137,525.343872 
	C445.086517,525.455750 441.852936,527.346680 438.909973,528.964478 
	C437.908722,529.514954 437.715637,531.535339 437.153259,532.884033 
	C436.567688,532.338074 435.982086,531.792175 435.396515,531.246216 
	C435.120422,529.344788 434.844330,527.443359 434.522705,525.228210 
	C429.747589,525.618530 425.287598,525.983093 420.827606,526.347656 
	C426.893005,528.550720 426.900269,533.493835 426.959625,538.305603 
	C427.043793,545.124512 426.917633,551.945984 427.004272,558.764832 
	C427.061005,563.230713 426.838165,567.436707 421.640167,569.385620 
	C428.860077,569.385620 436.079987,569.385620 443.299896,569.385620 
	C438.496185,568.262024 435.413055,565.784424 435.424011,560.836304 
	C435.440857,553.221924 435.196320,545.497925 436.397217,538.035095 
	C437.151917,533.345032 440.374969,529.077271 446.220184,527.795959 
	C444.516113,535.705444 445.942444,537.484741 453.260406,536.044128 
M721.915833,535.071716 
	C721.927856,542.734558 721.865967,550.398560 721.978516,558.059937 
	C722.051331,563.019043 722.065857,567.801758 715.824097,569.489380 
	C722.348511,569.489380 728.872986,569.489380 735.397400,569.489380 
	C730.209961,567.909241 729.875183,564.053650 729.936768,559.805786 
	C730.035706,552.977112 729.962402,546.146057 729.962097,539.315979 
	C729.961914,534.708191 729.962097,530.100464 729.962097,525.062561 
	C724.684204,525.573975 720.192566,526.009277 716.842102,526.333923 
	C718.628296,529.148193 720.231567,531.674377 721.915833,535.071716 
M771.045532,555.436584 
	C770.819885,560.715698 772.917358,566.858032 765.802490,569.539001 
	C772.274170,569.539001 778.745850,569.539001 785.217529,569.539001 
	C779.486206,567.586365 778.774231,563.293335 778.955933,558.309570 
	C779.125610,553.656494 778.992126,548.992371 778.992065,544.333069 
	C778.992065,538.062256 778.992065,531.791504 778.992065,525.078064 
	C773.965332,525.563049 769.705139,525.974060 765.444946,526.385071 
	C770.729248,528.714783 771.144043,532.913513 771.067566,537.481140 
	C770.972839,543.137268 771.045410,548.796143 771.045532,555.436584 
M721.185303,506.542755 
	C720.722900,507.227234 720.150696,507.862305 719.816772,508.604553 
	C718.203552,512.190002 720.045532,514.635132 723.089966,515.711304 
	C725.969971,516.729370 729.308228,516.545410 730.620911,512.923889 
	C731.802368,509.664673 730.565979,506.761688 727.387207,505.547913 
	C725.801086,504.942261 723.649719,505.816895 721.185303,506.542755 
M772.168030,505.489746 
	C768.827209,506.831268 768.325562,509.698730 769.322449,512.458069 
	C769.860779,513.948364 771.863281,515.487854 773.482971,515.891968 
	C777.139526,516.804138 780.448792,514.151978 780.505005,510.857849 
	C780.568909,507.111176 778.014526,505.207642 772.168030,505.489746 
z"/>
<path fill="#FEEDEE" opacity="1.000000" stroke="none" 
	d="
M522.305664,538.034668 
	C518.939758,539.197327 515.892212,540.102112 513.028809,541.409912 
	C509.451630,543.043701 506.466766,545.531616 508.463013,549.935852 
	C510.340332,554.077637 514.025269,554.579529 518.327393,553.409302 
	C518.106567,552.744080 517.893616,552.339294 517.844482,551.915466 
	C517.571045,549.555969 517.337280,547.191895 517.089905,544.829346 
	C519.358154,544.747559 522.063354,543.843384 523.798462,544.765198 
	C526.858154,546.390625 526.841553,550.255554 524.584045,552.013794 
	C521.661377,554.290039 517.704529,556.144226 514.080200,556.369751 
	C510.123047,556.616089 506.352905,554.243042 504.752808,550.011780 
	C503.260284,546.064819 503.769562,542.043579 507.160126,539.575134 
	C510.828094,536.904785 515.037659,534.811646 519.273499,533.126587 
	C525.894775,530.492432 532.816101,528.615356 539.452332,526.014526 
	C542.786438,524.707825 544.696777,521.882080 543.890198,517.992554 
	C543.143982,514.393738 540.317017,512.480469 535.467712,512.294617 
	C534.914856,515.733643 534.222717,519.588745 529.442810,518.817139 
	C527.859131,518.561462 525.845520,516.915649 525.324463,515.445984 
	C524.925903,514.321716 526.163208,511.912598 527.370178,511.044434 
	C532.997070,506.997101 542.353027,509.111237 545.898438,514.948364 
	C549.722107,521.243713 547.411072,528.197937 539.990417,531.829407 
	C536.434387,533.569702 532.597595,534.736206 530.057251,535.712952 
	C532.063538,540.502258 535.261108,545.081726 535.597778,549.862732 
	C535.890198,554.014893 534.076477,559.566528 531.154419,562.387695 
	C527.213196,566.192993 521.575073,569.305054 516.206726,570.342285 
	C505.658813,572.380310 495.291382,571.092468 487.119781,562.659424 
	C477.930145,553.175781 480.167480,539.619812 492.006256,533.535828 
	C493.174500,532.935486 494.321869,532.294556 494.358765,532.274719 
	C492.485443,528.127136 490.333954,524.381714 489.197021,520.350159 
	C488.736298,518.716370 490.055328,516.112671 491.309662,514.547424 
	C495.748962,509.007904 507.996918,508.305084 513.269958,513.029907 
	C516.212524,515.666443 516.830994,519.657715 514.522095,521.833130 
	C512.223328,523.999146 509.061829,524.399902 507.658997,521.741638 
	C506.601654,519.737915 507.736084,516.577576 507.933563,513.288147 
	C505.207001,512.743103 501.183075,511.519897 497.647369,514.849670 
	C494.467163,517.844604 494.382965,521.591370 495.661285,525.472473 
	C496.692871,528.604248 498.486511,530.504517 502.249451,530.223816 
	C504.120880,530.084229 506.075775,531.063477 507.992920,531.536621 
	C507.867584,532.296936 507.742249,533.057190 507.616913,533.817505 
	C505.624847,533.817505 503.594910,534.067078 501.647614,533.771912 
	C495.160400,532.788635 490.199463,536.131104 488.986053,542.515076 
	C487.203705,551.892456 491.378448,559.319824 500.344208,562.722473 
	C510.757568,566.674500 523.873413,564.125183 529.789612,556.875671 
	C532.997009,552.945435 533.898438,548.529724 531.488220,543.865295 
	C529.675415,540.356995 527.441711,537.232056 522.305664,538.034668 
z"/>
<path fill="#FEEFF0" opacity="1.000000" stroke="none" 
	d="
M367.049988,540.000000 
	C367.051361,546.820435 367.058777,553.140869 367.051910,559.461304 
	C367.047028,563.957581 368.121124,567.733887 373.338470,569.514771 
	C369.228485,569.961731 365.118805,570.663025 361.008301,570.667908 
	C360.040588,570.669067 359.070068,568.321594 357.915314,566.812012 
	C353.028595,571.305298 347.016602,572.373413 340.675629,569.866699 
	C338.167511,568.875122 335.648560,567.111633 333.941681,565.035950 
	C327.714966,557.463928 327.516602,541.286438 333.213776,533.425537 
	C339.363647,524.940063 346.603546,523.200073 359.264893,527.834412 
	C357.135651,519.788330 363.860718,510.228180 352.563812,504.475952 
	C357.025024,504.102966 361.486206,503.730011 367.049927,503.264893 
	C367.049927,515.459900 367.049927,527.479919 367.049988,540.000000 
M352.710144,527.446716 
	C346.289642,526.692017 342.384613,528.816101 340.281982,534.784546 
	C337.382904,543.013794 337.276978,551.425171 339.770752,559.784485 
	C341.683746,566.197021 345.489838,568.893799 350.961365,568.062805 
	C355.681915,567.345825 358.891754,562.984985 358.966675,556.930603 
	C359.047089,550.433533 358.864807,543.931641 359.028717,537.437622 
	C359.141968,532.950806 357.498901,529.705139 352.710144,527.446716 
z"/>
<path fill="#FEEFF1" opacity="1.000000" stroke="none" 
	d="
M239.715378,510.033508 
	C247.294052,510.038330 254.452362,510.023132 261.610413,510.060272 
	C273.427307,510.121613 281.795959,517.160095 281.800507,527.001404 
	C281.805481,537.764648 273.160706,545.876038 261.619965,546.020386 
	C251.790131,546.143188 252.902115,544.584778 252.809341,554.739563 
	C252.797180,556.071228 252.806686,557.403076 252.807831,558.734863 
	C252.814758,566.826355 252.814911,566.826355 260.286865,569.587219 
	C252.675232,569.587219 245.063599,569.587219 237.451965,569.587219 
	C246.838989,567.281189 243.691086,559.610168 243.869125,553.611816 
	C244.180145,543.133423 244.068390,532.637268 243.898560,522.152405 
	C243.833298,518.123169 245.101013,512.998291 238.514313,512.428162 
	C238.774506,511.631104 239.034714,510.834045 239.715378,510.033508 
M252.112869,519.061218 
	C252.104141,526.030579 252.023804,533.001221 252.150543,539.968140 
	C252.174271,541.272522 252.645004,543.152405 253.567581,543.749023 
	C256.509399,545.651428 265.936279,543.517395 268.497162,540.717224 
	C273.280945,535.486511 273.704681,521.817322 269.175140,516.341187 
	C265.849243,512.320190 261.125885,511.457397 256.545776,512.457092 
	C254.763245,512.846191 253.625290,516.188477 252.112869,519.061218 
z"/>
<path fill="#FEEDEE" opacity="1.000000" stroke="none" 
	d="
M576.387573,554.486328 
	C572.411072,542.435486 572.821533,531.136108 579.742920,520.632324 
	C586.976685,509.654419 601.119934,506.021515 612.771423,511.945953 
	C614.792969,512.973938 616.772644,514.084290 618.734863,515.136841 
	C619.975708,513.167175 620.994385,511.550201 622.013062,509.933258 
	C622.344299,510.088623 622.675476,510.244019 623.006714,510.399384 
	C623.006714,516.983093 623.006714,523.566895 623.006714,530.150635 
	C622.461304,530.299255 621.915833,530.447876 621.370422,530.596497 
	C620.636902,528.844971 619.562073,527.155640 619.229187,525.331055 
	C617.811401,517.559448 612.869812,513.461121 605.500183,512.095398 
	C597.774353,510.663635 592.020874,513.497681 587.868347,520.358337 
	C580.760803,532.100952 582.659180,555.844116 591.718018,564.454346 
	C600.869507,573.152710 615.980652,568.708252 619.049561,556.433838 
	C619.633606,554.097778 620.360474,551.797485 621.021423,549.480652 
	C621.644104,549.576172 622.266785,549.671631 622.889465,549.767090 
	C622.889465,556.432007 622.889465,563.096985 622.889465,571.257996 
	C621.030151,568.804932 620.017395,567.468750 618.539246,565.518494 
	C609.183960,571.766235 598.892578,573.148682 588.489868,568.332458 
	C582.782166,565.689880 578.648376,561.004150 576.387573,554.486328 
z"/>
<path fill="#FEEEF0" opacity="1.000000" stroke="none" 
	d="
M313.316895,526.352173 
	C319.278503,529.137024 321.444336,533.885254 321.987701,539.730225 
	C322.264984,542.712830 321.235474,543.968872 318.113312,543.890015 
	C311.956818,543.734558 305.778687,543.618896 299.643585,544.014587 
	C298.130157,544.112305 295.386871,546.447815 295.533600,547.394165 
	C296.279907,552.207458 296.779907,557.532593 299.255096,561.499939 
	C303.648499,568.541809 311.674652,568.457703 317.431427,562.304871 
	C318.494354,561.168823 319.547882,560.023865 320.934875,558.528137 
	C321.547516,563.047607 318.824249,567.008179 314.210327,569.259155 
	C302.640076,574.903687 289.390808,568.261047 286.983276,555.535217 
	C285.021545,545.166321 286.006866,535.338440 294.877075,528.376099 
	C300.108307,524.270142 306.561707,523.910156 313.316895,526.352173 
M313.032196,536.816284 
	C312.836700,535.848389 312.947083,534.625122 312.390686,533.958496 
	C310.397247,531.570251 308.245026,527.631714 306.026978,527.546265 
	C303.343018,527.442749 300.296265,530.396606 297.875549,532.553711 
	C296.700653,533.600769 296.429108,535.810120 296.040497,537.558228 
	C295.345245,540.685608 296.558502,542.199646 299.953857,541.975525 
	C302.918091,541.779846 305.916077,541.777222 308.879700,541.977234 
	C312.141113,542.197388 313.522583,540.918945 313.032196,536.816284 
z"/>
<path fill="#FEEEF0" opacity="1.000000" stroke="none" 
	d="
M661.761719,563.909058 
	C663.454285,561.948853 664.873474,560.241882 666.292664,558.534912 
	C666.837463,559.012695 667.382324,559.490417 667.927185,559.968201 
	C666.977783,564.467590 663.752502,567.522888 659.610291,569.427185 
	C648.236267,574.656250 635.819824,568.317688 632.880127,556.029541 
	C629.650146,542.528381 634.616882,530.342896 645.100281,526.048645 
	C655.369507,521.842102 665.881042,527.589600 667.773010,538.431091 
	C668.385071,541.938110 667.915527,544.177551 663.385071,543.927307 
	C657.412903,543.597290 651.402039,544.017517 645.420593,543.785461 
	C641.812622,543.645447 640.435974,545.141174 641.016846,548.471863 
	C641.669312,552.213501 641.931396,556.221252 643.522705,559.560852 
	C647.076904,567.019531 653.769165,568.484009 661.761719,563.909058 
M644.961548,530.521790 
	C643.525574,533.941284 642.089600,537.360718 640.337891,541.532104 
	C647.235229,541.532104 652.908691,541.532104 658.814941,541.532104 
	C659.310547,536.114075 658.697937,531.375488 654.347107,528.208740 
	C651.077576,525.829041 648.034912,527.358826 644.961548,530.521790 
z"/>
<path fill="#FEEEF0" opacity="1.000000" stroke="none" 
	d="
M791.021729,545.288452 
	C792.687683,531.577698 800.104675,524.603210 812.090759,525.035889 
	C820.499634,525.339355 827.205322,532.387085 826.603271,540.782776 
	C826.523804,541.890564 824.089722,543.628052 822.673401,543.703064 
	C816.525452,544.029114 810.346741,543.980103 804.187256,543.795776 
	C800.904663,543.697632 799.325378,544.971191 799.976746,548.140686 
	C800.865967,552.467346 801.351440,557.130005 803.378540,560.915894 
	C807.335632,568.306396 816.778931,568.729919 822.241638,562.361084 
	C823.287109,561.142212 824.454529,560.027954 826.372620,558.021057 
	C824.894714,568.033875 815.269592,573.146362 805.366821,570.500916 
	C797.057068,568.281006 791.665161,561.643250 791.055481,552.737427 
	C790.896545,550.415466 791.016113,548.074463 791.021729,545.288452 
M808.171875,527.438171 
	C802.125793,530.813660 799.861755,535.040100 800.770752,541.936951 
	C804.619202,541.936951 808.550171,541.939392 812.481201,541.935364 
	C813.472168,541.934326 814.554321,542.158020 815.429016,541.833069 
	C816.344299,541.493042 817.539368,540.762451 817.786194,539.951233 
	C819.497131,534.328186 814.833984,527.769043 808.171875,527.438171 
z"/>
<path fill="#FEEEF0" opacity="1.000000" stroke="none" 
	d="
M394.465912,564.746582 
	C403.115051,569.663330 408.592133,564.547180 414.155548,557.982117 
	C413.605286,564.895813 408.244537,570.002258 401.898102,570.925049 
	C389.267761,572.761353 379.318909,564.191528 378.961761,551.424866 
	C378.731964,543.210571 379.459991,535.482544 386.050415,529.482178 
	C391.261292,524.737915 397.359985,524.092590 403.762360,525.648499 
	C410.366272,527.253418 413.421173,532.146973 414.593658,538.564270 
	C415.240356,542.103699 414.430115,543.982544 410.411072,543.884033 
	C404.255951,543.733337 398.091797,543.954163 391.936523,543.806519 
	C388.899628,543.733704 387.887085,544.902771 387.850983,547.897217 
	C387.773376,554.329773 389.034698,560.131287 394.465912,564.746582 
M405.823029,540.333679 
	C405.215546,537.272766 405.061218,534.022949 403.884064,531.199524 
	C402.464600,527.794922 399.514374,526.210938 395.696075,527.645996 
	C390.701691,529.523071 387.549316,535.944885 389.014771,542.221436 
	C394.409698,541.861816 399.953766,541.492249 405.823029,540.333679 
z"/>
<path fill="#FEEEF0" opacity="1.000000" stroke="none" 
	d="
M675.661133,555.047058 
	C674.154968,544.956726 675.351562,536.107422 683.285828,529.196106 
	C689.475464,523.804443 700.575195,523.414062 706.845581,528.714111 
	C709.284851,530.775879 711.155273,533.689026 708.923462,536.502747 
	C707.667053,538.086731 704.400085,539.279907 702.455383,538.833801 
	C699.484741,538.152283 698.705566,535.356689 700.446289,532.445740 
	C700.940857,531.618835 701.458313,530.805664 701.944946,530.018921 
	C697.057434,526.105774 690.759338,527.014954 687.849426,532.109497 
	C682.914490,540.749451 682.642151,549.964539 686.037415,559.049622 
	C689.387146,568.012756 698.531555,569.437744 705.199951,562.480042 
	C706.221008,561.414673 707.201355,560.308960 708.255859,559.278564 
	C708.410034,559.127991 708.874146,559.294617 709.194458,559.320068 
	C709.369934,564.735352 703.342957,570.352417 696.878601,570.995483 
	C687.394348,571.938904 678.522888,567.162842 675.661133,555.047058 
z"/>
<path fill="#FEEFF1" opacity="1.000000" stroke="none" 
	d="
M754.090393,509.216461 
	C754.090698,526.345459 754.114929,543.004822 754.074890,559.664062 
	C754.064026,564.165710 754.649963,568.136230 760.257385,569.415161 
	C753.755981,569.415161 747.254639,569.415161 740.753235,569.415161 
	C746.516846,567.771179 746.028381,563.154358 746.013733,558.672852 
	C745.967957,544.679199 745.984680,530.685181 746.003784,516.691345 
	C746.010254,511.982544 746.728394,506.965149 739.442627,505.839722 
	C739.739624,505.384094 740.036621,504.928436 740.333618,504.472809 
	C744.590210,504.182281 748.846802,503.891785 753.807373,503.553223 
	C753.902466,505.299133 753.996338,507.022980 754.090393,509.216461 
z"/>
<path fill="#FEEFF0" opacity="1.000000" stroke="none" 
	d="
M452.940125,536.260498 
	C445.942444,537.484741 444.516113,535.705444 446.220184,527.795959 
	C440.374969,529.077271 437.151917,533.345032 436.397217,538.035095 
	C435.196320,545.497925 435.440857,553.221924 435.424011,560.836304 
	C435.413055,565.784424 438.496185,568.262024 443.299896,569.385620 
	C436.079987,569.385620 428.860077,569.385620 421.640167,569.385620 
	C426.838165,567.436707 427.061005,563.230713 427.004272,558.764832 
	C426.917633,551.945984 427.043793,545.124512 426.959625,538.305603 
	C426.900269,533.493835 426.893005,528.550720 420.827606,526.347656 
	C425.287598,525.983093 429.747589,525.618530 434.522705,525.228210 
	C434.844330,527.443359 435.120422,529.344788 435.396515,531.246216 
	C435.982086,531.792175 436.567688,532.338074 437.153259,532.884033 
	C437.715637,531.535339 437.908722,529.514954 438.909973,528.964478 
	C441.852936,527.346680 445.086517,525.455750 448.265137,525.343872 
	C450.469086,525.266357 453.528687,527.501526 454.761047,529.565918 
	C455.579987,530.937805 453.849670,533.831604 452.940125,536.260498 
z"/>
<path fill="#FEEFF1" opacity="1.000000" stroke="none" 
	d="
M721.875366,534.636108 
	C720.231567,531.674377 718.628296,529.148193 716.842102,526.333923 
	C720.192566,526.009277 724.684204,525.573975 729.962097,525.062561 
	C729.962097,530.100464 729.961914,534.708191 729.962097,539.315979 
	C729.962402,546.146057 730.035706,552.977112 729.936768,559.805786 
	C729.875183,564.053650 730.209961,567.909241 735.397400,569.489380 
	C728.872986,569.489380 722.348511,569.489380 715.824097,569.489380 
	C722.065857,567.801758 722.051331,563.019043 721.978516,558.059937 
	C721.865967,550.398560 721.927856,542.734558 721.875366,534.636108 
z"/>
<path fill="#FEEFF1" opacity="1.000000" stroke="none" 
	d="
M771.045593,554.945190 
	C771.045410,548.796143 770.972839,543.137268 771.067566,537.481140 
	C771.144043,532.913513 770.729248,528.714783 765.444946,526.385071 
	C769.705139,525.974060 773.965332,525.563049 778.992065,525.078064 
	C778.992065,531.791504 778.992065,538.062256 778.992065,544.333069 
	C778.992126,548.992371 779.125610,553.656494 778.955933,558.309570 
	C778.774231,563.293335 779.486206,567.586365 785.217529,569.539001 
	C778.745850,569.539001 772.274170,569.539001 765.802490,569.539001 
	C772.917358,566.858032 770.819885,560.715698 771.045593,554.945190 
z"/>
<path fill="#FEEFF0" opacity="1.000000" stroke="none" 
	d="
M721.469666,506.282349 
	C723.649719,505.816895 725.801086,504.942261 727.387207,505.547913 
	C730.565979,506.761688 731.802368,509.664673 730.620911,512.923889 
	C729.308228,516.545410 725.969971,516.729370 723.089966,515.711304 
	C720.045532,514.635132 718.203552,512.190002 719.816772,508.604553 
	C720.150696,507.862305 720.722900,507.227234 721.469666,506.282349 
z"/>
<path fill="#FEEFF0" opacity="1.000000" stroke="none" 
	d="
M772.539062,505.343994 
	C778.014526,505.207642 780.568909,507.111176 780.505005,510.857849 
	C780.448792,514.151978 777.139526,516.804138 773.482971,515.891968 
	C771.863281,515.487854 769.860779,513.948364 769.322449,512.458069 
	C768.325562,509.698730 768.827209,506.831268 772.539062,505.343994 
z"/>
<path fill="#FFADAD" opacity="1.000000" stroke="none" 
	d="
M353.071960,527.594238 
	C357.498901,529.705139 359.141968,532.950806 359.028717,537.437622 
	C358.864807,543.931641 359.047089,550.433533 358.966675,556.930603 
	C358.891754,562.984985 355.681915,567.345825 350.961365,568.062805 
	C345.489838,568.893799 341.683746,566.197021 339.770752,559.784485 
	C337.276978,551.425171 337.382904,543.013794 340.281982,534.784546 
	C342.384613,528.816101 346.289642,526.692017 353.071960,527.594238 
z"/>
<path fill="#FFADAD" opacity="1.000000" stroke="none" 
	d="
M252.153290,518.623413 
	C253.625290,516.188477 254.763245,512.846191 256.545776,512.457092 
	C261.125885,511.457397 265.849243,512.320190 269.175140,516.341187 
	C273.704681,521.817322 273.280945,535.486511 268.497162,540.717224 
	C265.936279,543.517395 256.509399,545.651428 253.567581,543.749023 
	C252.645004,543.152405 252.174271,541.272522 252.150543,539.968140 
	C252.023804,533.001221 252.104141,526.030579 252.153290,518.623413 
z"/>
<path fill="#FFAEAE" opacity="1.000000" stroke="none" 
	d="
M313.049652,537.248535 
	C313.522583,540.918945 312.141113,542.197388 308.879700,541.977234 
	C305.916077,541.777222 302.918091,541.779846 299.953857,541.975525 
	C296.558502,542.199646 295.345245,540.685608 296.040497,537.558228 
	C296.429108,535.810120 296.700653,533.600769 297.875549,532.553711 
	C300.296265,530.396606 303.343018,527.442749 306.026978,527.546265 
	C308.245026,527.631714 310.397247,531.570251 312.390686,533.958496 
	C312.947083,534.625122 312.836700,535.848389 313.049652,537.248535 
z"/>
<path fill="#FFAEAE" opacity="1.000000" stroke="none" 
	d="
M645.215515,530.246094 
	C648.034912,527.358826 651.077576,525.829041 654.347107,528.208740 
	C658.697937,531.375488 659.310547,536.114075 658.814941,541.532104 
	C652.908691,541.532104 647.235229,541.532104 640.337891,541.532104 
	C642.089600,537.360718 643.525574,533.941284 645.215515,530.246094 
z"/>
<path fill="#FFAEAE" opacity="1.000000" stroke="none" 
	d="
M808.535889,527.328125 
	C814.833984,527.769043 819.497131,534.328186 817.786194,539.951233 
	C817.539368,540.762451 816.344299,541.493042 815.429016,541.833069 
	C814.554321,542.158020 813.472168,541.934326 812.481201,541.935364 
	C808.550171,541.939392 804.619202,541.936951 800.770752,541.936951 
	C799.861755,535.040100 802.125793,530.813660 808.535889,527.328125 
z"/>
<path fill="#FFAEAE" opacity="1.000000" stroke="none" 
	d="
M405.660400,540.728210 
	C399.953766,541.492249 394.409698,541.861816 389.014771,542.221436 
	C387.549316,535.944885 390.701691,529.523071 395.696075,527.645996 
	C399.514374,526.210938 402.464600,527.794922 403.884064,531.199524 
	C405.061218,534.022949 405.215546,537.272766 405.660400,540.728210 
z"/>
</svg>